<svg xmlns="http://www.w3.org/2000/svg" xmlns:xlink="http://www.w3.org/1999/xlink" version="1.1" x="0px" y="0px" viewBox="0 0 100 100" style="enable-background:new 0 0 100 100;" xml:space="preserve"><path d="M69.175,67.771c-0.708-0.429-1.63-0.203-2.06,0.506c-1.516,2.503-4.322,4.059-7.323,4.059c-0.555,0-1.096-0.055-1.621-0.154  c-0.115-0.055-0.236-0.101-0.368-0.125c-0.086-0.016-0.172-0.021-0.257-0.022c-3.009-0.799-5.351-3.156-6.026-6.115  c0.093-0.573,0.156-1.156,0.156-1.754c0-0.067-0.011-0.131-0.02-0.196l2.262-1c0.758-0.335,1.101-1.221,0.766-1.979  c-0.335-0.757-1.219-1.099-1.979-0.766l-2.707,1.197l-2.711-1.197c-0.759-0.335-1.644,0.009-1.978,0.766  c-0.335,0.758,0.008,1.644,0.766,1.978l2.262,0.999c-0.009,0.065-0.02,0.13-0.02,0.198c0,0.598,0.062,1.181,0.156,1.754  c-0.675,2.961-3.019,5.318-6.03,6.116c-0.081,0.002-0.163,0.005-0.245,0.021c-0.131,0.024-0.251,0.07-0.365,0.124  c-0.528,0.1-1.072,0.155-1.63,0.155c-3.001,0-5.808-1.555-7.323-4.059c-0.429-0.709-1.353-0.935-2.06-0.506  c-0.708,0.429-0.936,1.352-0.506,2.06c2.056,3.396,5.845,5.505,9.89,5.505c0.404,0,0.803-0.022,1.197-0.062  c1.297,3.57,4.702,6.032,8.6,6.032c3.898,0,7.303-2.462,8.6-6.031c0.392,0.039,0.789,0.061,1.191,0.061  c4.044,0,7.834-2.109,9.89-5.505C70.11,69.123,69.883,68.2,69.175,67.771z M50,78.307c-2.501,0-4.686-1.517-5.641-3.741  c2.359-0.897,4.335-2.531,5.638-4.612c1.304,2.083,3.281,3.717,5.643,4.614C54.685,76.791,52.5,78.307,50,78.307z"></path><path d="M92.763,28.899c1.039-3.454,1.695-6.746,2.007-10.068c0.67-7.33-0.25-9.346-1.119-10.276  c-0.82-0.89-2.038-1.342-3.617-1.342c-3.088,0-7.168,1.69-10.737,3.268c-4.395,1.893-8.464,4.6-12.108,8.055  c-1.817-0.646-4.56-1.499-8.141-2.27c-3.006-0.645-6.098-0.955-9.19-0.939c-0.013,0-0.026-0.004-0.039-0.004  c-0.023,0-0.044,0.006-0.066,0.007c-2.913,0.021-5.826,0.329-8.667,0.936c-2.979,0.632-5.894,1.431-8.294,2.271  c-3.601-3.44-7.661-6.156-12.083-8.08C17.741,9.165,13.256,7.212,9.97,7.212c-1.582,0-2.8,0.452-3.613,1.334  C5.479,9.484,4.56,11.501,5.23,18.828c0.424,4.718,1.594,9.534,3.578,14.73c0.729,1.878,1.1,3.484,1.045,4.506  c-0.631,9.7-1.268,14.501-1.69,17.678c-0.352,2.655-0.537,4.068-0.377,6.002c-0.001,0.027-0.008,0.052-0.008,0.079  c0,0.132,0.022,0.258,0.055,0.38c0.018,0.168,0.032,0.33,0.055,0.508c0.369,2.787,1.18,5.351,2.24,7.68  c0.023,0.062,0.051,0.12,0.082,0.178c4.289,9.265,12.547,14.703,12.981,14.984c5.265,3.422,10.304,5.338,17.401,6.614  c2.489,0.435,4.746,0.621,7.546,0.621c0.601,0,1.233-0.009,1.821-0.027c0.668,0.018,1.3,0.027,1.901,0.027  c2.8,0,5.057-0.186,7.553-0.622c7.09-1.275,12.13-3.191,17.391-6.611c0.433-0.28,8.583-5.646,12.884-14.782  c0.135-0.177,0.234-0.381,0.28-0.607c1.003-2.261,1.765-4.742,2.116-7.426c0.015-0.109,0.023-0.206,0.035-0.31  c0.082-0.185,0.129-0.389,0.129-0.605c0-0.114-0.015-0.224-0.039-0.33c0.131-1.827-0.051-3.257-0.389-5.833  c-0.072-0.545-0.15-1.143-0.233-1.8c0.002-0.028,0.008-0.054,0.008-0.083c0-0.155-0.03-0.302-0.074-0.443  c-0.392-3.16-0.886-7.732-1.376-15.254c-0.056-1.039,0.315-2.646,1.048-4.534C91.833,31.867,92.347,30.341,92.763,28.899z   M89.885,28.051c-0.397,1.379-0.886,2.829-1.49,4.421c-0.622,1.604-1.343,3.905-1.242,5.787c0.422,6.495,0.86,10.903,1.222,14.02  h-4.846c-0.829,0-1.5,0.671-1.5,1.5s0.671,1.5,1.5,1.5h5.217c0.035,0.27,0.069,0.531,0.101,0.774  c0.257,1.954,0.408,3.12,0.409,4.272H78.279c-0.829,0-1.5,0.671-1.5,1.5s0.671,1.5,1.5,1.5h10.679  c-0.313,1.788-0.828,3.472-1.477,5.046h-5.162c-0.829,0-1.5,0.671-1.5,1.5s0.671,1.5,1.5,1.5h3.702  c-4.057,7.202-10.478,11.429-10.847,11.668c-4.904,3.188-9.623,4.977-16.283,6.174c-2.309,0.403-4.412,0.576-7.029,0.576  c-0.576,0-1.181-0.009-1.901-0.026c-3.553,0.097-6.035-0.058-8.843-0.549c-6.667-1.198-11.387-2.987-16.293-6.177  c-0.367-0.237-6.782-4.461-10.849-11.666h3.736c0.829,0,1.5-0.671,1.5-1.5s-0.671-1.5-1.5-1.5h-5.2  c-0.652-1.574-1.17-3.257-1.488-5.046h2.103c0.829,0,1.5-0.671,1.5-1.5s-0.671-1.5-1.5-1.5h-2.396  c0.005-1.129,0.155-2.273,0.409-4.187c0.036-0.268,0.074-0.558,0.113-0.859H16.5c0.829,0,1.5-0.671,1.5-1.5s-0.671-1.5-1.5-1.5  h-4.876c0.364-3.118,0.801-7.527,1.225-14.036c0.1-1.864-0.621-4.167-1.24-5.762c-1.882-4.927-2.991-9.481-3.39-13.923  c-0.626-6.835,0.291-7.919,0.337-7.97c0.223-0.242,0.725-0.375,1.415-0.375c2.662,0,6.968,1.875,9.542,2.996  c4.375,1.903,8.373,4.648,11.883,8.158c0.494,0.494,1.262,0.581,1.855,0.212l0.075-0.047c0.731-0.266,1.526-0.527,2.358-0.782v6.953  c0,0.829,0.671,1.5,1.5,1.5s1.5-0.671,1.5-1.5v-7.793c0.987-0.252,2.001-0.491,3.027-0.709c2.171-0.464,4.386-0.736,6.608-0.833V23  c0,0.829,0.671,1.5,1.5,1.5s1.5-0.671,1.5-1.5v-4.647c2.391,0.074,4.773,0.347,7.098,0.846c0.877,0.189,1.747,0.396,2.602,0.613  v7.889c0,0.829,0.671,1.5,1.5,1.5s1.5-0.671,1.5-1.5v-7.053c0.959,0.293,1.864,0.595,2.682,0.898l0.234,0.104  c0.565,0.251,1.225,0.13,1.665-0.304c3.553-3.516,7.552-6.245,11.897-8.116c2.385-1.055,6.824-3.018,9.537-3.018  c0.687,0,1.188,0.133,1.418,0.383c0.039,0.042,0.955,1.126,0.33,7.958C91.49,21.672,90.871,24.774,89.885,28.051z"></path><path d="M28.406,25.748c0.057-0.917-0.291-1.808-0.955-2.443c-2.148-2.056-5.736-4.639-7.528-5.419  c-1.897-0.825-4.763-2.073-6.246-0.463c-0.69,0.737-0.882,2.025-0.661,4.437c0.022,0.253,0.078,0.548,0.17,0.903  c0.209,0.801,1.026,1.282,1.831,1.072c0.801-0.209,1.281-1.029,1.072-1.831c-0.042-0.161-0.075-0.297-0.085-0.411  c-0.092-1.003-0.083-1.601-0.056-1.939c0.531,0.081,1.461,0.41,2.778,0.983c1.329,0.578,4.591,2.864,6.686,4.924  c-0.002,0.041-0.021,0.075-0.057,0.101l-5.925,4.401c-0.014,0.01-0.053,0.041-0.115,0.022c-0.059-0.016-0.076-0.058-0.082-0.073  l-0.677-1.619c-0.314-0.75-0.641-1.527-0.953-2.287c-0.315-0.767-1.19-1.131-1.958-0.818c-0.767,0.315-1.132,1.191-0.818,1.958  c0.315,0.767,0.645,1.553,0.963,2.309l0.671,1.605c0.371,0.896,1.12,1.559,2.054,1.817c0.278,0.077,0.56,0.115,0.84,0.115  c0.664,0,1.314-0.212,1.863-0.621l5.925-4.401C27.889,27.517,28.349,26.671,28.406,25.748z"></path><path d="M80.099,17.69c-1.849,0.804-5.555,3.472-7.776,5.598c-0.676,0.647-1.03,1.553-0.972,2.487  c0.059,0.94,0.527,1.802,1.285,2.365l6.132,4.555c0.559,0.416,1.221,0.631,1.896,0.631c0.285,0,0.573-0.039,0.855-0.117  c0.951-0.263,1.713-0.937,2.091-1.849l0.572-1.367c0.32-0.764-0.039-1.643-0.803-1.964c-0.763-0.319-1.643,0.039-1.964,0.803  l-0.576,1.379c-0.008,0.02-0.034,0.082-0.119,0.105c-0.058,0.017-0.114,0.006-0.164-0.031l-6.132-4.555  c-0.062-0.046-0.078-0.104-0.08-0.144c-0.005-0.079,0.038-0.119,0.052-0.133c2.136-2.044,5.521-4.415,6.898-5.014  c1.411-0.614,2.397-0.959,2.943-1.03c0.033,0.344,0.048,0.976-0.053,2.073c-0.023,0.258-0.205,1.05-1.162,3.46  c-0.306,0.77,0.07,1.642,0.84,1.948c0.771,0.306,1.643-0.071,1.948-0.84c0.884-2.225,1.291-3.51,1.362-4.296  c0.227-2.485,0.033-3.805-0.662-4.549C84.993,15.559,82.047,16.843,80.099,17.69z"></path><path d="M49.819,34.975c0.829,0,1.5-0.671,1.5-1.5V27.5c0-0.829-0.671-1.5-1.5-1.5s-1.5,0.671-1.5,1.5v5.975  C48.319,34.304,48.99,34.975,49.819,34.975z"></path><path d="M71.827,46.815l-2.922-1.154c-1.168-0.461-2.393-0.696-3.64-0.696c-4.097,0-7.716,2.462-9.222,6.273  c-0.146,0.37-0.14,0.783,0.019,1.148c0.158,0.365,0.455,0.652,0.825,0.798l2.922,1.154c1.168,0.461,2.393,0.696,3.64,0.696  c4.097,0,7.716-2.462,9.222-6.273C72.975,47.991,72.598,47.12,71.827,46.815z M59.535,51.005c0.811-1.207,1.975-2.11,3.322-2.607  v3.608c-0.664-0.057-1.316-0.209-1.945-0.458L59.535,51.005z M65.857,51.602v-3.608c0.664,0.057,1.316,0.209,1.945,0.458  l1.377,0.544C68.369,50.202,67.204,51.105,65.857,51.602z"></path><path d="M36.986,55.228L36.986,55.228c0.739,0,1.481-0.083,2.207-0.249l3.063-0.697c0.388-0.088,0.725-0.327,0.937-0.664  c0.212-0.336,0.281-0.744,0.193-1.132c-1.033-4.542-5.005-7.715-9.658-7.715c-0.739,0-1.481,0.083-2.207,0.249l-3.063,0.697  c-0.388,0.088-0.725,0.327-0.937,0.664c-0.212,0.336-0.281,0.744-0.193,1.132C28.362,52.055,32.333,55.228,36.986,55.228z   M39.972,51.726l-1.444,0.329c-0.508,0.115-1.026,0.174-1.541,0.174h0c-0.004,0-0.008-0.001-0.012-0.001v-3.634  C38.27,49.282,39.333,50.363,39.972,51.726z M32.187,47.946c0.508-0.115,1.026-0.174,1.542-0.174c0.083,0,0.163,0.015,0.246,0.018  v3.745c-1.404-0.678-2.553-1.815-3.231-3.26L32.187,47.946z"></path><path d="M21.75,60.324h-4.375c-0.829,0-1.5,0.671-1.5,1.5s0.671,1.5,1.5,1.5h4.375c0.829,0,1.5-0.671,1.5-1.5  S22.579,60.324,21.75,60.324z"></path></svg>